<?xml version="1.0" encoding="utf-8"?>
<!-- Generator: Adobe Illustrator 25.2.1, SVG Export Plug-In . SVG Version: 6.00 Build 0)  -->
<svg version="1.1" id="Capa_1" xmlns="http://www.w3.org/2000/svg" xmlns:xlink="http://www.w3.org/1999/xlink" x="0px" y="0px"
	 viewBox="0 0 500 99.5" style="enable-background:new 0 0 500 99.5;" xml:space="preserve">
<style type="text/css">
	.st0{fill:#FFFFFF;}
</style>
<g>
	<g>
		<path class="st0" d="M67.8,47.9c0.2-1.2,0.4-2.5,0.7-3.7c2.1-8.8,9.3-15.4,18.3-16.7c1.6-0.2,3.3-0.3,4.9-0.3
			c3.9,0,7.8,0.1,11.7,0.1c0.1,0,0.2,0,0.5,0.1c-0.9,2-1.6,4.1-2.6,6c-0.6,1.2-1.9,1.5-3.1,1.6c-2.1,0-4.2,0-6.2,0.1
			c-2.1,0.1-4.3,0.1-6.3,0.8c-5.5,1.9-9.2,5.6-10.4,11.4C74,53,76.7,58.9,81.6,62.1c6.8,4.5,16.5,2.8,21.1-3.8
			c1.8-2.6,2.6-5.4,2.7-8.6c0.2-5.3,1.7-10.2,5.1-14.3c6.8-8.4,18.2-10.6,27.8-5.5c2.2,1.2,4.2,2.6,5.9,4.4c1.1,1.1,1.2,2.1,0.6,3.4
			c-0.9,1.9-1.8,3.9-2.8,5.8c-0.1,0.2-0.2,0.3-0.3,0.6c-0.5-0.7-1-1.4-1.4-2.1c-2.5-3.6-5.9-6-10.4-6.7c-6-0.9-11.5,1.8-14.6,7
			c-3.3,5.6-2.8,13,1.4,17.5c4,4.3,9.1,5.8,14.8,4.4c5.7-1.4,9.3-5.3,10.7-10.9c0.5-1.9,0.5-4,0.7-5.9c1.2-10.6,9.2-18.7,19.8-20
			c5.3-0.7,10.3,0.4,14.8,3.2c0.9,0.5,1.7,1.1,2.6,1.6c0,0,0.1,0,0.2,0c0-4.7,0-9.5,0-14.3c2.8-0.6,5.6-1.2,8.5-1.9
			c0,0.3,0,0.6,0,0.8c0,4.3,0,8.6-0.1,12.9c0,0.5-0.3,1.2-0.6,1.5c-3.9,3.5-6.7,7.7-8.2,12.7c0,0.1-0.1,0.1-0.1,0.2
			c-0.4-0.7-0.8-1.4-1.2-2.1c-2.5-4-5.9-6.6-10.6-7.3c-8.1-1.3-14.6,3.4-16.6,10.9c-0.4,1.6-0.6,3.2-0.7,4.9
			c-0.3,10.5-7.9,19.4-18.2,21.4c-4.7,0.9-9.2,0.7-13.7-1.1c-3.8-1.6-6.9-4.2-9.6-7.4c-0.1-0.1-0.2-0.3-0.4-0.5
			c-0.4,0.5-0.8,0.9-1.2,1.3c-2.5,3-5.6,5.3-9.3,6.8c-12.7,5-27.6-2.2-30.2-16.7c-0.1-0.6-0.2-1.2-0.3-1.8
			C67.8,50.9,67.8,49.4,67.8,47.9z"/>
		<path class="st0" d="M189.8,53.8c0,3.3,1.4,5.7,3.9,7.6c2.4,1.7,5.1,2.6,7.9,3.2c2,0.4,4,0.8,6.1,1.1c0,2.2,0,4.4,0,6.6
			c-6,1-16.1,0.1-23-9c-1.1,1-2.3,2.1-3.4,3.1c-7.1,6.2-15.1,7.8-24,4.7c-3.7-1.3-6.7-3.7-9.1-6.7c-0.1-0.2-0.2-0.5-0.2-0.7
			c1.1-2.5,2.3-4.9,3.5-7.4c0,0,0.1-0.1,0.2-0.1c0.5,0.8,1,1.5,1.5,2.3c2.5,3.8,5.9,6.2,10.5,6.8c4.7,0.5,8.8-0.9,12.3-4.2
			c3.3-3.1,4.6-7.1,4.8-11.5c0.3-5.6,2.2-10.7,6-14.9c3.4-3.7,7.6-5.8,12.5-6.9c12.5-2.6,24,6.2,26.7,16.8c0.6,2.3,0.9,4.7,0.5,7.1
			c-0.2,1.4-0.8,2-2.2,2.2c-0.7,0.1-1.3,0.1-2,0.1c-10.5,0-21.1,0-31.6,0C190.4,53.8,190.2,53.8,189.8,53.8z M217.8,45.7
			c0-0.1,0-0.2,0-0.2c-0.1-0.4-0.2-0.8-0.3-1.1c-1.8-4.7-5.3-7.6-10-9c-6.3-1.9-13,0.7-16.2,6.1c-0.8,1.3-1.3,2.7-1.5,4.3
			C199.2,45.7,208.5,45.7,217.8,45.7z"/>
		<path class="st0" d="M291.3,71.3c-0.8,0-1.4,0-2.2,0c0-0.3,0-0.6,0-0.9c0-8.8,0-17.6,0-26.4c0-1.9-0.2-3.9-0.6-5.8
			c-1-4.8-3.7-7.3-8.5-7.9c-4.3-0.6-8.4,0.2-11.9,3.1c-2.7,2.3-4.7,5.1-5.5,8.6c-0.1,0.6-0.2,1.2-0.2,1.8c0,8.9,0,17.7,0,26.6
			c0,0.3,0,0.6,0,1c-0.7,0-1.4,0-2.2,0c0-0.3,0-0.6,0-0.9c0-9.3,0-18.6,0-27.9c0-2-0.2-3.9-0.9-5.8c-1-3.1-3.1-5.2-6.2-6
			c-4.7-1.2-9.2-0.7-13.1,2.6c-2.6,2.2-4.4,5.1-5.5,8.3c-0.5,1.5-0.8,3-0.8,4.6c0,8.1,0,16.1,0,24.2c0,0.3,0,0.6,0,0.9
			c-0.8,0-1.4,0-2.2,0c0-14.1,0-28.3,0-42.4c0.7,0,1.4,0,2.1,0c0,3.2,0,6.3,0,9.5c0.1,0,0.1,0,0.2,0.1c0.1-0.2,0.2-0.5,0.3-0.7
			c2.3-4.6,5.7-8,10.8-9.2c3.5-0.9,6.9-0.6,10.3,0.7c3.7,1.4,5.6,4.3,6.5,8c0.1,0.2,0.1,0.5,0.2,0.6c0.7-1.1,1.4-2.4,2.2-3.5
			c3.3-4.1,7.6-6.1,12.8-6.3c2.1-0.1,4.2,0.1,6.3,0.8c4,1.4,6.1,4.3,7.2,8.2c0.6,2.3,0.8,4.6,0.8,6.9c0,8.8,0,17.7,0,26.5
			C291.3,70.8,291.3,71,291.3,71.3z"/>
		<path class="st0" d="M338.2,50.4c0,3.7-0.5,7.6-2.2,11.2c-3.2,6.9-9.5,10.7-17.1,10.5c-7.8-0.3-14-5.1-16.6-12.6
			c-1.3-3.8-1.5-7.8-1.3-11.8c0.2-3.8,1.1-7.5,3-10.8c3.8-6.3,9.4-9.2,16.6-8.9c8.1,0.4,14.4,5.7,16.7,14.4
			C338,45,338.2,47.5,338.2,50.4z M336,49.9c0.1-3.8-0.7-7.7-2.6-11.2c-4.4-8.2-13.1-10.2-20-7.3c-4.4,1.8-7.2,5.4-8.9,9.7
			c-1.3,3.3-1.5,6.7-1.5,10.1c0.1,3.3,0.7,6.5,2.2,9.5c3.2,6.8,9.9,10.3,17.3,9c4.8-0.8,8.3-3.7,10.7-7.8
			C335.4,58.2,336,54.2,336,49.9z"/>
		<path class="st0" d="M348.4,28.8c0.6,0,1.1,0,1.5,0c0.2,0,0.3,0,0.6,0c0,3.1,0,6.2,0,9.3c0.1,0,0.1,0,0.2,0
			c0.2-0.4,0.4-0.9,0.7-1.3c2.5-4.5,6.1-7.5,11.2-8.6c3-0.6,6.1-0.4,9,0.6c3.8,1.4,5.9,4.2,6.8,8c0.5,1.9,0.8,3.9,0.8,5.9
			c0.1,9.2,0,18.4,0,27.6c0,0.3,0,0.5,0,0.8c-0.7,0-1.4,0-2.2,0c0-0.3,0-0.6,0-0.9c0-9.2,0-18.3,0-27.5c0-2.2-0.3-4.3-1-6.3
			c-1.3-3.7-4-5.7-7.8-6.3c-8-1.2-13.1,3.2-15.9,9c-0.4,0.8-0.7,1.6-1,2.5c-0.5,1.2-0.6,2.5-0.6,3.9c0,8.2,0,16.4,0,24.6
			c0,0.3,0,0.6,0,0.9c-0.7,0-1.4,0-2.1,0C348.4,57.2,348.4,43,348.4,28.8z"/>
		<path class="st0" d="M394.6,11c0,0.2,0,0.5,0,0.7c0,12.9,0,25.8,0,38.7c0,0.2,0,0.5,0,0.9c0.9-0.8,1.6-1.5,2.4-2.2
			c7.1-6.6,14.3-13.2,21.4-19.9c0.4-0.4,0.7-0.5,1.3-0.5c0.7,0,1.4,0,2.4,0c-6.6,6.1-13,12.1-19.5,18.1c3.5,4.1,6.9,8.1,10.4,12.2
			c3.4,4,6.9,8.1,10.4,12.2c-1,0-1.8,0-2.6,0c-0.2,0-0.5-0.3-0.6-0.5c-4.4-5.1-8.8-10.3-13.1-15.4c-2-2.3-3.9-4.6-6-7
			c-1.2,1-2.3,2-3.5,3c-0.5,0.4-1,0.9-1.5,1.3c-1,0.7-1.3,1.5-1.2,2.7c0.1,5,0,10,0,15.1c0,0.3,0,0.6,0,0.9c-0.7,0-1.4,0-2.1,0
			c0-0.3,0-0.6,0-0.9c0-19.5,0-38.9,0-58.4c0-0.3,0-0.7-0.1-1C393.1,11,393.9,11,394.6,11z"/>
		<path class="st0" d="M428.6,48.6c-0.7,8,2.6,15.9,9.4,19.6c5.2,2.8,14.3,2.6,19.2-3.6c0.1-0.1,0.2-0.3,0.4-0.5
			c0.5,0.4,1,0.7,1.5,1.1c-2.2,3.2-5.2,5.3-9,6.3c-10,2.6-19.7-2.8-22.7-13c-2.1-7.1-1.8-14.1,1.6-20.8c2.5-4.8,6.3-8.1,11.6-9.3
			c8.6-1.9,16.4,2.9,18.8,11.5c0.8,2.8,0.9,5.8,0.8,8.8C449.8,48.6,439.2,48.6,428.6,48.6z M458.2,46.5c0-2.8-0.4-5.3-1.5-7.8
			c-4.2-9.5-14.4-10.4-20.6-6c-4,2.8-6.2,6.8-7.2,11.5c-0.2,0.7-0.2,1.5-0.4,2.3C438.6,46.5,448.4,46.5,458.2,46.5z"/>
		<path class="st0" d="M482.7,67.9c3.3-8.6,6.5-17.1,9.8-25.5c1.6-4.3,3.3-8.6,4.9-12.9c0.2-0.5,0.4-0.7,0.9-0.6s1.1,0,1.7,0
			c0,0.2-0.1,0.3-0.1,0.5c-6.6,17.2-13.1,34.4-19.7,51.6c-1.1,2.8-2.7,5.1-5.4,6.5c-2.3,1.2-4.7,1.3-7.2,0.9
			c-0.5-0.1-0.8-0.3-0.7-0.8c0-0.5,0-0.9,0-1.2c1.4,0,2.7,0.1,4,0c2.3-0.2,4.2-1.3,5.6-3.2c1.5-1.9,2.3-4.2,3.1-6.4
			c0.6-1.7,1.2-3.3,1.8-5c0.1-0.4,0.1-0.8,0-1.2c-5.5-13.7-10.9-27.3-16.4-41c-0.1-0.2-0.1-0.4-0.2-0.7c0.7,0,1.4,0,2.1,0
			c0.2,0,0.4,0.3,0.5,0.6c2.2,5.5,4.4,10.9,6.6,16.4c2.9,7.1,5.7,14.2,8.6,21.3C482.5,67.3,482.6,67.5,482.7,67.9z"/>
	</g>
	<g>
		<path class="st0" d="M23.5,51.7c-0.2,0-0.5,0-0.8-0.1c-1.1-0.3-1.8-1.1-1.9-2.2c0-0.4,0-0.9,0.1-1.3c0.3-1.1,1-1.6,2-1.8
			c0.5-0.1,1-0.1,1.5,0c0.6,0.2,1.1,0.5,1.4,1.1c0.6,0.9,0.6,1.9,0.2,2.9c-0.4,0.8-1,1.2-1.8,1.4C24,51.6,23.7,51.7,23.5,51.7z"/>
		<path class="st0" d="M35.2,51.7c-0.5,0-1-0.1-1.4-0.3c-0.9-0.4-1.4-1.3-1.3-2.3c0.1-0.4,0.2-0.8,0.4-1.2c0.2-0.3,0.4-0.6,0.6-0.9
			c0.2-0.3,0.4-0.5,0.7-0.8c0.1-0.1,0.1-0.1,0.2-0.1c0.6,0.1,1.1,0.1,1.7,0.3c0.1,0,0.2,0.1,0.3,0.1c0.9,0.4,1.4,1.1,1.5,2.1
			c0,0.4,0,0.8-0.1,1.2c-0.3,1.1-1.2,1.8-2.3,1.9C35.4,51.7,35.3,51.7,35.2,51.7z"/>
		<path class="st0" d="M34.4,55.9C34.4,56,34.4,56,34.4,55.9c-0.5,0.7-1.1,1.2-1.8,1.5c-0.5,0.2-1,0.4-1.6,0.3
			c-0.1,0-0.2-0.1-0.3-0.2c-0.1-0.2-0.3-0.4-0.4-0.6c-0.1-0.1-0.1-0.2-0.2-0.4c-0.1-0.3,0-0.6,0.3-0.8c0.2-0.1,0.5-0.2,0.8-0.2
			c0.8-0.1,1.5,0,2.2,0.1C33.8,55.8,34.1,55.8,34.4,55.9z"/>
		<path class="st0" d="M24.3,55.9c0.4-0.1,0.7-0.1,1-0.2c0.7-0.1,1.4-0.2,2.1-0.1c0.2,0,0.5,0.1,0.7,0.2c0.4,0.1,0.5,0.4,0.4,0.8
			c-0.1,0.4-0.4,0.7-0.7,1c0,0-0.1,0.1-0.2,0.1c-0.4,0.1-0.7,0-1-0.1c-0.2-0.1-0.3-0.1-0.5-0.2C25.4,57.1,24.8,56.5,24.3,55.9z"/>
		<path class="st0" d="M58.7,46.8c-0.1-1.7-0.7-3.3-1.6-4.7c-0.8-1.3-2-2.4-3.2-3.2c-0.7-0.5-1.2-1.1-1.6-1.8
			c-0.1-0.3-0.2-0.6-0.3-0.9c-0.9-2.9-2.1-5.5-4-7.9c-1.5-1.9-3.2-3.5-5.1-4.9c-0.5-0.4-1.1-0.8-1.6-1.2c-0.3-0.2-0.5-0.4-0.7-0.6
			c-0.1-0.1-0.2-0.2-0.3-0.4c-0.2-0.3-0.3-0.7-0.1-1c0.1-0.2,0.2-0.5,0.4-0.7c0.4-0.6,0.9-1.1,1.3-1.7c0.1-0.1,0.2-0.2,0.3-0.4
			c-0.2,0-0.3-0.1-0.4-0.1c-0.3,0-0.6,0-0.9,0c-0.2,0-0.3,0.1-0.5,0.1c-0.7,0.1-1.5,0.3-2.2,0.4c-1,0.2-2,0.2-3-0.1
			c-0.3-0.1-0.5-0.2-0.7-0.3c-0.2-0.1-0.3-0.1-0.5,0c-0.6,0.3-1.2,0.6-1.8,0.8c-1,0.4-2,0.7-3.1,0.8c-0.3,0-0.6,0-1,0.1
			C18.4,19.6,10.2,25.7,7,34.9c-0.2,0.5-0.3,1.1-0.5,1.7c-0.3,1-0.9,1.8-1.7,2.4c-1.4,1-2.6,2.2-3.4,3.6c-0.7,1.2-1.1,2.4-1.2,3.8
			c0,0.1-0.1,0.3-0.1,0.4c0,0.5,0,0.9,0,1.4c0,0.1,0.1,0.3,0.1,0.4c0.2,1.4,0.6,2.8,1.3,4.1c1.2,2.1,3,3.5,5.3,4.3
			c0.9,0.3,1.9,0.5,2.9,0.6c1.7,0.1,2.9,1.1,3.6,2.5c0.4,0.8,0.6,1.7,0.4,2.6c-0.2,1.2-0.4,2.3-0.4,3.5c0,1,0.1,1.9,0.3,2.9
			c0.5,2.4,1.4,4.7,2.8,6.7c2.3,3.1,5.4,5.1,9.1,6c1.5,0.4,3.1,0.5,4.7,0.5c2.1-0.1,4.2-0.5,6.2-1.4c3.3-1.5,5.7-4,7.4-7.2
			c0.9-1.7,1.4-3.5,1.7-5.4c0.3-2,0.2-3.9-0.2-5.9c-0.5-2.2,0.8-4.2,3-4.7c0.3-0.1,0.7-0.1,1.1-0.1c2-0.2,3.9-0.8,5.6-2
			c2-1.5,3.3-3.4,3.8-5.9c0.1-0.5,0.1-0.9,0.2-1.4c0-0.1,0-0.1,0-0.2c0-0.3,0-0.7,0-1C58.7,47,58.7,46.9,58.7,46.8z M8.6,55.6
			c-3.1-1.2-5-3.4-5.6-6.7c-0.4-2.4,0.2-4.6,1.8-6.5C4.9,42.3,5,42.2,5,42.1c1.3,4.5,2.6,9,3.9,13.6C8.8,55.7,8.7,55.7,8.6,55.6z
			 M42.9,70c0,0.1-0.1,0.2-0.1,0.3c-0.5,1-1.2,1.8-2,2.5c-1.1,1-2.3,1.7-3.6,2.4c-1.9,0.9-3.9,1.5-6,1.7C30.6,77,30,77,29.4,77
			c-0.6,0-1.2,0-1.8-0.1c-2.1-0.2-4.1-0.8-6-1.7c-1.3-0.6-2.5-1.4-3.6-2.4c-0.8-0.7-1.5-1.5-2-2.5c0-0.1-0.1-0.2-0.1-0.3
			c0,0,0,0,0-0.1C16,70,16.1,70,16.1,70c2.1,1.3,4.3,2.5,6.6,3.3c1.5,0.5,3,0.9,4.5,1.1c0.7,0.1,1.5,0.1,2.2,0.2
			c0.7,0,1.5-0.1,2.2-0.2c1.5-0.2,3.1-0.6,4.5-1.1c2.3-0.8,4.5-1.9,6.6-3.3C42.7,70,42.8,70,42.9,70C42.9,69.9,42.9,70,42.9,70z
			 M43.9,56.1c-1.1,0.6-2.2,1-3.4,1.3c-0.1,0-0.2,0-0.3,0.1c0.1,0.4,0.2,0.8,0.3,1.2c0.6,2,1.1,4,1.7,5.9c0.1,0.5,0.3,1.1,0.3,1.6
			c0.1,1.1-0.3,2-1,2.8c-0.3,0.4-0.7,0.7-1.2,0.9c-2,1.2-4.2,2-6.5,2.5c-1.7,0.4-3.4,0.5-5.2,0.5c-3.7-0.1-7.1-1.1-10.2-2.9
			c-0.6-0.4-1.2-0.8-1.6-1.4c-0.7-0.9-0.9-1.9-0.8-3c0.1-1.5,0.5-2.9,1.1-4.3c0.4-1,0.9-2,1.4-3c0.1-0.2,0.2-0.5,0.4-0.8
			c-0.1,0-0.2-0.1-0.3-0.1c-1.7-0.9-3.3-1.9-4.8-3.2c-1.3-1.1-2.4-2.4-3.2-4c-0.9-1.7-1.4-3.6-1.3-5.6c0.1-1.6,0.4-3.1,1.1-4.5
			c1.6-3.6,4.4-6.1,8.2-7.2c3.1-0.9,6.1-0.6,9.1,0.8c0.7,0.3,1.3,0.7,2,1.2c0.1,0,0.1,0.1,0.2,0.1c0.7-0.4,1.3-0.8,2-1.1
			c1.4-0.7,2.9-1.2,4.4-1.4c3.7-0.5,7,0.5,9.9,3c2.1,1.8,3.5,4,4.1,6.7C51.5,47.7,48.9,53.4,43.9,56.1z M55.8,47.8
			c-0.1,1.4-0.4,2.7-1,3.9c-1,1.9-2.5,3.2-4.5,4.1c-0.2,0.1-0.5,0.2-0.7,0.3l0,0l0,0c1.3-4.7,2.7-9.3,4-14c0,0,0-0.1,0.1-0.1
			c0.4,0.4,0.7,0.9,1,1.3C55.5,44.5,55.9,46.1,55.8,47.8z"/>
	</g>
</g>
</svg>
