<?xml version="1.0" encoding="utf-8"?>
<!-- Generator: Adobe Illustrator 25.2.1, SVG Export Plug-In . SVG Version: 6.00 Build 0)  -->
<svg version="1.1" id="Capa_1" xmlns="http://www.w3.org/2000/svg" xmlns:xlink="http://www.w3.org/1999/xlink" x="0px" y="0px"
	 viewBox="0 0 1024 1024" style="enable-background:new 0 0 1024 1024;" xml:space="preserve">
<style type="text/css">
	.st0{fill:#FFFFFF;}
</style>
<g>
	<path class="st0" d="M662.5,735.8h-20.8v39.3h20.8c7.3,0,12.7-1.7,16.3-5.1c3.6-3.4,5.4-8.3,5.4-14.5c0-6.3-1.8-11.1-5.4-14.5
		C675.2,737.6,669.8,735.8,662.5,735.8z"/>
	<path class="st0" d="M360,735.8h-20.8v39.3H360c7.3,0,12.7-1.7,16.3-5.1c3.6-3.4,5.4-8.3,5.4-14.5c0-6.3-1.8-11.1-5.4-14.5
		C372.7,737.6,367.3,735.8,360,735.8z"/>
	<path class="st0" d="M562.9,362.3c11.3-9.3,17-23,17-41.1c0-18.1-5.7-31.9-17-41.4c-11.3-9.5-27.5-14.3-48.6-14.3h-84.4v110.8h84.4
		C535.4,376.2,551.6,371.6,562.9,362.3z"/>
	<path class="st0" d="M512,0C229.2,0,0,229.2,0,512s229.2,512,512,512s512-229.2,512-512S794.8,0,512,0z M414.2,780.4
		c-4.2,7.5-10.6,13.6-19.2,18.2c-8.6,4.6-19.4,6.9-32.1,6.9h-23.7v56.3H301V705h61.8c12.5,0,23.1,2.2,31.7,6.5
		c8.6,4.3,15.1,10.3,19.4,17.9c4.3,7.6,6.5,16.3,6.5,26.1C420.5,764.6,418.4,772.9,414.2,780.4z M576.1,861.8h-38.2v-64.5h-59.4
		v64.5h-38.2V705h38.2v61.4h59.4V705h38.2V861.8z M716.7,780.4c-4.2,7.5-10.6,13.6-19.2,18.2c-8.6,4.6-19.4,6.9-32.1,6.9h-23.7v56.3
		h-38.2V705h61.8c12.5,0,23.1,2.2,31.7,6.5c8.6,4.3,15.1,10.3,19.4,17.9c4.3,7.6,6.5,16.3,6.5,26.1
		C723,764.6,720.9,772.9,716.7,780.4z M676.6,652.4c-30.9,25.9-74,38.8-129.2,38.8H301V162.2h238.1c53.7,0,95.8,12.3,126.2,36.9
		c30.4,24.6,45.6,58,45.6,100.2c0,31.2-8.2,57-24.5,77.6c-16.3,20.6-38.1,34.9-65.2,42.9c30.6,6.5,55.3,21.7,73.8,45.6
		c18.6,23.9,27.9,51.1,27.9,81.8C723,591.5,707.5,626.5,676.6,652.4z"/>
	<path class="st0" d="M574.2,486.2c-12.3-10.5-29.3-15.8-50.9-15.8h-93.4v116.8h94.9c21.6,0,38.3-4.9,50.1-14.7
		c11.8-9.8,17.7-24,17.7-42.6C592.6,511.4,586.5,496.8,574.2,486.2z"/>
</g>
</svg>
