<?xml version="1.0" encoding="utf-8"?>
<!-- Generator: Adobe Illustrator 25.2.1, SVG Export Plug-In . SVG Version: 6.00 Build 0)  -->
<svg version="1.1" id="Capa_1" xmlns="http://www.w3.org/2000/svg" xmlns:xlink="http://www.w3.org/1999/xlink" x="0px" y="0px"
	 viewBox="0 0 524.3 158.8" style="enable-background:new 0 0 524.3 158.8;" xml:space="preserve">
<style type="text/css">
	.st0{fill:#2196F3;}
</style>
<g>
	<g>
		<path class="st0" d="M220.3,86.4c3,3.6,4.5,7.8,4.5,12.6c0,3.9-0.9,7.5-2.8,10.6c-1.9,3.1-4.6,5.5-8.3,7.3
			c-3.7,1.8-8.2,2.7-13.4,2.7h-24.4V42.7h24c7.7,0,13.5,1.8,17.4,5.3c3.9,3.5,5.9,8.1,5.9,13.7c0,4.9-1.3,8.9-3.9,11.9
			c-2.6,3-6,5.1-10.1,6.2C213.5,80.6,217.2,82.8,220.3,86.4z M180.8,77.6h19.3c5.8,0,10.2-1.4,13.3-4.1c3.1-2.7,4.7-6.5,4.7-11.3
			c0-4.7-1.5-8.4-4.6-11.1c-3.1-2.7-7.7-4.1-13.9-4.1h-18.7V77.6z M214.6,110.8c3.5-3,5.3-7,5.3-12.2c0-5.1-1.8-9.2-5.4-12.2
			c-3.6-3-8.6-4.5-14.8-4.5h-18.8v33.4H200C206.2,115.3,211,113.8,214.6,110.8z"/>
		<path class="st0" d="M281.3,60.1v59.5h-4.9v-12.9c-1.7,4.5-4.5,8-8.4,10.3c-3.9,2.4-8.4,3.6-13.4,3.6c-7.1,0-12.9-2.2-17.4-6.5
			c-4.5-4.3-6.7-10.8-6.7-19.3V60.1h4.8v34.3c0,7.1,1.8,12.5,5.4,16.3c3.6,3.8,8.4,5.6,14.6,5.6c6.4,0,11.6-2,15.4-6.1
			c3.8-4.1,5.7-10.1,5.7-18.2V60.1H281.3z"/>
		<path class="st0" d="M303.8,62.3c3.7-2.3,8.5-3.4,14.2-3.4V64h-1.6c-5.8,0-10.7,1.7-14.6,5c-3.9,3.3-5.8,8.7-5.8,16.3v34.3h-4.9
			V60.1h4.9v12.3C297.5,68,300.1,64.6,303.8,62.3z"/>
		<path class="st0" d="M320.7,45.7c-0.8-0.8-1.2-1.8-1.2-3.1c0-1.2,0.4-2.3,1.2-3.1c0.8-0.8,1.8-1.2,3-1.2c1.2,0,2.2,0.4,3,1.2
			c0.8,0.8,1.2,1.8,1.2,3.1c0,1.3-0.4,2.4-1.2,3.1c-0.8,0.8-1.8,1.1-3,1.1C322.5,46.8,321.6,46.4,320.7,45.7z M326.1,60.1v59.5h-4.9
			V60.1H326.1z"/>
		<path class="st0" d="M389.3,79.6c-2,3.7-5.2,6.7-9.4,8.9c-4.2,2.3-9.5,3.4-15.8,3.4h-11.6v27.6h-18.7V42.7h30.3
			c6.1,0,11.3,1.1,15.6,3.2c4.2,2.1,7.4,5,9.5,8.8c2.1,3.7,3.2,8,3.2,12.8C392.4,71.9,391.3,75.9,389.3,79.6z M370.7,74.5
			c1.8-1.7,2.6-4.1,2.6-7.1c0-3.1-0.9-5.4-2.6-7.1c-1.8-1.7-4.4-2.5-8-2.5h-10.2V77h10.2C366.3,77,368.9,76.2,370.7,74.5z"/>
		<path class="st0" d="M460.5,42.7v76.9h-18.7V87.9h-29.1v31.7h-18.7V42.7h18.7v30.1h29.1V42.7H460.5z"/>
		<path class="st0" d="M521.3,79.6c-2,3.7-5.2,6.7-9.4,8.9c-4.2,2.3-9.5,3.4-15.8,3.4h-11.6v27.6h-18.7V42.7h30.3
			c6.1,0,11.3,1.1,15.6,3.2c4.2,2.1,7.4,5,9.5,8.8c2.1,3.7,3.2,8,3.2,12.8C524.3,71.9,523.3,75.9,521.3,79.6z M502.7,74.5
			c1.8-1.7,2.6-4.1,2.6-7.1c0-3.1-0.9-5.4-2.6-7.1c-1.8-1.7-4.4-2.5-8-2.5h-10.2V77h10.2C498.2,77,500.9,76.2,502.7,74.5z"/>
	</g>
	<g>
		<path class="st0" d="M102.7,114.1h-3.2v6.1h3.2c1.1,0,2-0.3,2.5-0.8c0.6-0.5,0.8-1.3,0.8-2.2c0-1-0.3-1.7-0.8-2.2
			C104.7,114.4,103.9,114.1,102.7,114.1z"/>
		<path class="st0" d="M55.8,114.1h-3.2v6.1h3.2c1.1,0,2-0.3,2.5-0.8c0.6-0.5,0.8-1.3,0.8-2.2c0-1-0.3-1.7-0.8-2.2
			C57.8,114.4,57,114.1,55.8,114.1z"/>
		<path class="st0" d="M87.3,56.2c1.8-1.4,2.6-3.6,2.6-6.4s-0.9-4.9-2.6-6.4c-1.8-1.5-4.3-2.2-7.5-2.2H66.7v17.2h13.1
			C83,58.3,85.5,57.6,87.3,56.2z"/>
		<path class="st0" d="M79.4,0C35.5,0,0,35.5,0,79.4s35.5,79.4,79.4,79.4s79.4-35.5,79.4-79.4S123.3,0,79.4,0z M64.2,121
			c-0.7,1.2-1.6,2.1-3,2.8c-1.3,0.7-3,1.1-5,1.1h-3.7v8.7h-5.9v-24.3h9.6c1.9,0,3.6,0.3,4.9,1s2.3,1.6,3,2.8c0.7,1.2,1,2.5,1,4
			C65.2,118.6,64.9,119.9,64.2,121z M89.3,133.6h-5.9v-10h-9.2v10h-5.9v-24.3h5.9v9.5h9.2v-9.5h5.9V133.6z M111.1,121
			c-0.7,1.2-1.6,2.1-3,2.8c-1.3,0.7-3,1.1-5,1.1h-3.7v8.7h-5.9v-24.3h9.6c1.9,0,3.6,0.3,4.9,1c1.3,0.7,2.3,1.6,3,2.8
			c0.7,1.2,1,2.5,1,4C112.1,118.6,111.8,119.9,111.1,121z M104.9,101.2c-4.8,4-11.5,6-20,6H46.7v-82h36.9c8.3,0,14.9,1.9,19.6,5.7
			s7.1,9,7.1,15.5c0,4.8-1.3,8.8-3.8,12c-2.5,3.2-5.9,5.4-10.1,6.7c4.7,1,8.6,3.4,11.4,7.1c2.9,3.7,4.3,7.9,4.3,12.7
			C112.1,91.7,109.7,97.2,104.9,101.2z"/>
		<path class="st0" d="M89,75.4c-1.9-1.6-4.5-2.5-7.9-2.5H66.7v18.1h14.7c3.3,0,5.9-0.8,7.8-2.3c1.8-1.5,2.7-3.7,2.7-6.6
			C91.9,79.3,91,77,89,75.4z"/>
	</g>
</g>
</svg>
