<?xml version="1.0" encoding="utf-8"?>
<!-- Generator: Adobe Illustrator 24.0.2, SVG Export Plug-In . SVG Version: 6.00 Build 0)  -->
<svg version="1.1" id="Capa_1" xmlns="http://www.w3.org/2000/svg" xmlns:xlink="http://www.w3.org/1999/xlink" x="0px" y="0px"
	 viewBox="0 0 1024 1024" style="enable-background:new 0 0 1024 1024;" xml:space="preserve">
<style type="text/css">
	.st0{fill:#FFFFFF;}
</style>
<g>
	<path class="st0" d="M418.3,542c-3.9-0.5-8.1-0.8-12.3-1.8c-16.9-4.1-27.9-17.3-29.6-35.1c-0.7-6.9-0.7-13.8,1.1-20.5
		c4.3-16.6,15.4-25.8,31.9-29c8.1-1.5,16.1-1.5,24.2,0.6c9.7,2.5,17.2,8,22.3,16.6c8.9,14.7,9.9,30.1,2.9,45.8
		c-5.6,12.4-15.4,19.5-28.5,22C426.4,541.3,422.5,541.5,418.3,542z"/>
	<path class="st0" d="M603.1,541.5c-7.8,0.2-15.3-1.3-22.4-4.6c-14.6-7-22-21-19.7-37c0.9-6.7,3.2-12.8,6.8-18.4
		c3.1-4.7,6.5-9.2,10-13.7c3.4-4.4,7-8.5,10.4-12.8c1-1.3,2.1-2,3.8-1.8c8.9,0.9,17.8,2.1,26.3,5.1c1.4,0.5,2.8,1.1,4.2,1.7
		c14.6,6.3,22.7,17.4,24,33.3c0.5,6.4,0,12.7-1.7,18.8c-4.7,17.1-19,28.5-36.7,29.5C606.4,541.6,604.8,541.5,603.1,541.5z"/>
	<path class="st0" d="M591.1,607.9c-0.4,0.9-0.4,1.3-0.7,1.6c-7.9,9.1-16.7,17.1-27.7,22.5c-8,3.9-16.4,6.2-25.5,4.9
		c-2-0.3-3.7-1-4.9-2.6c-2.3-2.9-4.8-5.7-6.9-8.7c-1.2-1.8-2.2-3.8-2.9-5.9c-1.8-5.4-0.2-9.3,4.9-12c3.8-2,8-2.7,12.3-3.2
		c11.9-1.3,23.6-0.1,35.4,1.2C580.4,606.2,585.5,607.1,591.1,607.9z"/>
	<path class="st0" d="M431.9,608c5.8-0.9,10.6-1.8,15.4-2.4c11.1-1.4,22.2-2.7,33.3-1.2c3.6,0.5,7.3,1.3,10.7,2.7
		c5.7,2.3,7.6,6.9,5.7,12.8c-2,6.2-6.1,11-10.4,15.7c-0.7,0.7-1.9,1-3,1.2c-5.5,1.2-11,0.3-16.3-1.3c-2.7-0.9-5.4-2-8-3.3
		C448.6,626.5,440.1,618.2,431.9,608z"/>
	<path class="st0" d="M973.4,464.7c-1.2-27.3-10.3-51.9-25.1-74.6c-13.4-20.5-30.7-37-51-50.5c-10.9-7.3-19.3-16.8-25.3-28.4
		c-2.2-4.4-3.9-9.1-5.3-13.8c-13.6-45-33.8-86.6-62.4-124c-22.9-30-50.1-55.6-80.8-77.5c-8.6-6.2-17.3-12.3-25.7-18.7
		c-4.1-3.1-7.8-6.5-11.5-10c-1.8-1.7-3.3-3.7-4.7-5.7c-3.4-5-4.4-10.5-2.1-16.1c1.6-3.9,3.4-7.9,5.8-11.3c6.6-9,13.6-17.7,20.5-26.4
		c1.4-1.8,3-3.6,4.8-5.9C708,1,705.9,0.5,703.7,0c-5,0-9.9,0-14.9,0c-2.6,0.4-5.1,0.8-7.7,1.3c-11.5,2.2-23,4.5-34.5,6.6
		c-15.6,2.8-31.2,3.4-46.6-1.2c-3.9-1.2-7.9-2.5-11.6-4.4c-2.9-1.5-5-1-7.7,0.2c-9.3,4.4-18.6,9-28.2,12.7
		c-15.8,6.1-32.1,10.6-49,12.6c-5.1,0.6-10.2,0.7-15.3,1c-149.4,8.5-278.8,103.8-329.4,248.5c-3,8.6-5.5,17.3-8.2,26
		c-4.8,15.6-13.4,28.5-26.9,38.1c-21.8,15.5-40.3,34.1-53.9,57.4c-10.7,18.3-17.3,38-19.6,59.1c-0.2,2-1,4-1.5,6
		c0,7.2,0,14.3,0,21.5c0.5,2.1,1.3,4.2,1.5,6.3c2.5,22.7,8.9,44.3,20.2,64.1c19.1,33.5,47.7,55.4,83.9,67.6c14.8,5,30,8,45.6,9.2
		c26.9,2.2,44.9,17.1,57,40.1c6.8,12.9,8.8,26.7,6.2,41.3c-3.3,18.4-6.1,36.9-6.3,55.8c-0.2,15.2,1.7,30.2,4.5,45.1
		c7.2,38.3,21.6,73.6,44.7,105.2c36.1,49.3,84.3,80.6,143.6,95.2c24.2,5.9,48.8,8.4,73.7,7.5c33.8-1.3,66.4-7.6,97.2-22.1
		c51.7-24.4,90-62.7,116.2-113.2c14-26.9,22.8-55.4,26.9-85.4c4.3-31.1,2.9-62.1-3.5-92.8c-7.1-33.9,13.2-66.5,46.6-74.6
		c5.4-1.3,11.1-1.7,16.8-2.2c31.9-2.6,61.5-12.1,87.7-30.9c31.8-23,51.4-54,59.2-92.3c1.4-7.1,1.8-14.4,2.7-21.7
		c0.1-1.1,0.5-2.1,0.7-3.1c0-5.2,0-10.5,0-15.7C973.8,467.4,973.5,466.1,973.4,464.7z M184.5,603.9c-49-19-78.8-54.3-87.6-106.1
		c-6.5-38.2,3.7-72.6,28.3-102.6c0.9-1,1.8-2,3.2-3.6c20.6,71.4,41,142.2,61.7,214.1C187.6,604.9,186,604.5,184.5,603.9z M724.7,830
		c-0.6,1.4-1.3,2.7-2,4.1c-8,15.2-18.9,28-31.6,39.5C674,889,654.7,901,633.9,910.8c-30,14.1-61.6,22.9-94.6,26.2
		c-9.6,0.9-19.2,1.4-28.7,1.1c-9.6,0.3-19.2-0.1-28.7-1.1c-33.1-3.2-64.6-12-94.6-26.2c-20.8-9.8-40.1-21.9-57.3-37.3
		c-12.7-11.4-23.6-24.3-31.6-39.5c-0.7-1.3-1.3-2.7-2-4.1c-0.1-0.2,0.1-0.5,0.2-1.1c1.3,0.8,2.6,1.5,3.8,2.3
		c32.8,21.1,67.1,39,104,51.8c23.2,8,47,13.8,71.4,16.9c11.7,1.5,23.3,2.3,34.8,2.5c11.5-0.2,23.1-1,34.8-2.5
		c24.4-3.1,48.1-8.9,71.4-16.9c36.9-12.8,71.2-30.6,104-51.8c1.2-0.8,2.5-1.5,3.8-2.3C724.6,829.5,724.8,829.8,724.7,830z
		 M740.7,611.7c-16.9,9.2-34.7,16-53.3,20.8c-1.3,0.3-2.6,0.7-4.2,1.2c1.8,6.2,3.5,12.3,5.3,18.4c8.8,31.1,17.7,62.2,26.3,93.4
		c2.3,8.5,4.4,17.1,5.4,25.8c2.1,17.3-4.1,31.9-16,44.3c-5.5,5.7-11.7,10.4-18.5,14.5c-31.9,18.9-66,32.1-102.3,39.8
		c-26.8,5.7-53.9,8.2-81.3,7.4c-57.7-1.9-111.6-17-161.4-46.3c-10.1-5.9-19-13.2-25.9-22.7c-10.3-14.2-13.5-30.2-12.5-47.3
		c1.3-23.7,8.1-46,17.5-67.6c7-16.2,14.8-32,22.2-48c1.8-3.9,3.6-7.7,5.5-12c-1.4-0.8-2.7-1.5-4-2.1c-27.1-13.8-52.6-30.1-75.4-50.3
		c-20.4-18-37.8-38.5-50.9-62.5c-14.9-27.5-22.3-56.8-21.1-88.1c0.9-24.8,7.1-48.4,17.3-71c25.9-57.3,68.9-95.5,129-113.7
		c49-14.8,96.6-9.1,142.5,13c10.8,5.2,21.1,11.3,31,18.1c1,0.7,2.1,1.4,2.8,1.9c10.8-6.1,21-12.2,31.5-17.6
		c21.9-11.1,45-18.7,69.4-21.7c58.6-7.3,110.5,8.5,155.3,46.9c32.7,28.1,54.6,63.2,64.5,105.3C860,478.7,819.6,568.6,740.7,611.7z
		 M927.2,480.3c-1.3,21.4-6.6,41.8-16.4,61c-15.4,30.3-39.6,51-70.8,63.9c-3.7,1.5-7.4,2.8-11,4.2c-0.3-0.4-0.4-0.5-0.5-0.6
		c-0.1-0.1-0.1-0.3-0.1-0.4c21-73.6,42.1-147.1,63.1-220.7c0.1-0.5,0.4-1,0.9-2c6.5,6.6,11.7,13.5,16.3,20.8
		C922.9,429.2,928.8,453.8,927.2,480.3z"/>
</g>
</svg>
