<?xml version="1.0" encoding="utf-8"?>
<!-- Generator: Adobe Illustrator 24.0.2, SVG Export Plug-In . SVG Version: 6.00 Build 0)  -->
<svg version="1.1" id="Capa_1" xmlns="http://www.w3.org/2000/svg" xmlns:xlink="http://www.w3.org/1999/xlink" x="0px" y="0px"
	 viewBox="0 0 1024 158.8" style="enable-background:new 0 0 1024 158.8;" xml:space="preserve">
<style type="text/css">
	.st0{fill:#2196F3;}
</style>
<g>
	<g>
		<path class="st0" d="M138.8,75.6c0.5-2.5,0.9-5.1,1.5-7.6c4.4-18.1,19.1-31.6,37.5-34.2c3.3-0.5,6.7-0.6,10.1-0.6
			c8,0,15.9,0.1,23.9,0.2c0.2,0,0.4,0,0.9,0.1c-1.8,4.2-3.3,8.3-5.3,12.3c-1.2,2.4-3.8,3.1-6.3,3.2c-4.2,0.2-8.5,0.2-12.7,0.4
			c-4.4,0.1-8.8,0.2-13,1.7c-11.3,3.9-18.8,11.5-21.4,23.3c-2.6,11.6,2.8,23.7,12.9,30.4c13.9,9.2,33.9,5.6,43.2-7.7
			c3.7-5.3,5.4-11.2,5.5-17.5c0.3-10.9,3.5-20.8,10.4-29.3c13.9-17.1,37.3-21.7,57-11.3c4.5,2.4,8.6,5.4,12.1,9.1
			c2.2,2.3,2.5,4.3,1.2,6.9c-1.9,3.9-3.8,7.9-5.6,11.9c-0.2,0.3-0.3,0.7-0.6,1.2c-1-1.5-2-2.9-2.9-4.3c-5.2-7.5-12.1-12.4-21.2-13.8
			c-12.3-1.9-23.5,3.6-29.9,14.3c-6.8,11.5-5.8,26.6,2.9,35.9c8.2,8.8,18.6,12,30.3,9.1c11.7-2.9,19-10.8,21.9-22.3
			c1-3.9,1.1-8.1,1.5-12.2c2.4-21.6,18.9-38.4,40.6-41.1c10.9-1.4,21,0.9,30.4,6.5c1.8,1.1,3.5,2.2,5.3,3.3c0.1,0,0.2,0,0.4,0
			c0-9.7,0-19.4,0-29.3c5.8-1.3,11.6-2.5,17.5-3.8c0,0.6,0,1.1,0,1.7c0,8.8,0,17.7-0.1,26.5c0,1-0.5,2.4-1.3,3
			c-8.1,7.1-13.7,15.8-16.7,26.1c0,0.1-0.2,0.2-0.3,0.4c-0.9-1.4-1.6-2.9-2.5-4.2c-5.1-8.1-12.1-13.5-21.8-15
			c-16.6-2.7-30,7.1-34,22.4c-0.9,3.2-1.3,6.6-1.4,10c-0.6,21.6-16.1,39.8-37.3,43.8c-9.5,1.8-18.9,1.5-28-2.3
			c-7.9-3.3-14.2-8.7-19.6-15.2c-0.2-0.3-0.5-0.6-0.9-1.1c-0.9,0.9-1.7,1.8-2.5,2.8c-5.2,6.1-11.4,10.9-19,13.8
			c-26,10.2-56.6-4.4-61.9-34.2c-0.2-1.3-0.5-2.5-0.7-3.8C138.8,81.8,138.8,78.7,138.8,75.6z"/>
		<path class="st0" d="M388.8,87.8c0,6.7,2.8,11.8,8.1,15.5c4.9,3.4,10.5,5.2,16.3,6.5c4.1,0.9,8.2,1.5,12.5,2.3c0,4.4,0,8.9,0,13.4
			c-12.2,2-33,0.3-47.1-18.4c-2.3,2.1-4.6,4.2-7,6.3c-14.5,12.7-31,15.9-49.2,9.7c-7.6-2.6-13.6-7.5-18.7-13.7
			c-0.3-0.4-0.5-1.1-0.3-1.5c2.3-5.1,4.7-10.1,7.1-15.2c0-0.1,0.1-0.1,0.3-0.3c1,1.6,2,3.1,3,4.7c5.1,7.8,12.1,12.8,21.5,13.9
			c9.7,1.1,18.1-1.9,25.2-8.5c6.8-6.4,9.4-14.4,9.9-23.6c0.6-11.5,4.4-21.9,12.2-30.6c6.9-7.6,15.6-12,25.5-14.1
			c25.5-5.3,49.1,12.7,54.7,34.4c1.2,4.8,1.8,9.6,1.1,14.5c-0.4,2.8-1.7,4-4.5,4.4c-1.3,0.2-2.7,0.3-4,0.3c-21.6,0-43.2,0-64.7,0
			C390,87.8,389.5,87.8,388.8,87.8z M446,71c0-0.2,0.1-0.4,0.1-0.5c-0.2-0.8-0.4-1.6-0.7-2.4c-3.7-9.6-10.8-15.6-20.5-18.5
			c-12.9-3.9-26.6,1.4-33.3,12.6c-1.6,2.7-2.7,5.5-3,8.8C407.9,71,427,71,446,71z"/>
		<path class="st0" d="M596.6,123.6c-1.6,0-2.9,0-4.4,0c0-0.7,0-1.3,0-1.9c0-18,0.1-36-0.1-54c0-4-0.4-8-1.2-11.9
			c-2.1-9.8-7.6-14.9-17.5-16.2c-8.9-1.1-17.3,0.5-24.4,6.3c-5.6,4.6-9.6,10.4-11.2,17.6c-0.3,1.2-0.3,2.4-0.3,3.6
			c0,18.1,0,36.3,0,54.4c0,0.6,0,1.2,0,2c-1.5,0-2.9,0-4.4,0c0-0.6,0-1.2,0-1.9c0-19.1,0-38.1,0-57.2c0-4-0.5-8-1.8-11.8
			c-2.1-6.3-6.3-10.6-12.8-12.2c-9.7-2.4-18.9-1.5-26.8,5.3c-5.4,4.6-8.9,10.4-11.3,17.1c-1.1,3.1-1.6,6.2-1.6,9.5
			c0.1,16.5,0,33,0,49.5c0,0.6,0,1.1,0,1.8c-1.5,0-2.9,0-4.4,0c0-29,0-57.9,0-86.9c1.4,0,2.8,0,4.4,0c0,6.5,0,13,0,19.5
			c0.1,0,0.2,0.1,0.3,0.1c0.2-0.5,0.4-0.9,0.7-1.4c4.7-9.5,11.7-16.3,22.1-18.9c7.1-1.8,14.2-1.3,21,1.4c7.5,2.9,11.5,8.8,13.3,16.3
			c0.1,0.5,0.2,0.9,0.3,1.3c1.5-2.3,2.8-4.9,4.6-7.1c6.7-8.3,15.6-12.5,26.3-12.8c4.4-0.2,8.7,0.2,12.8,1.7
			c8.1,2.8,12.6,8.9,14.8,16.9c1.3,4.6,1.6,9.4,1.6,14.2c0,18.1,0,36.2,0,54.3C596.6,122.5,596.6,122.9,596.6,123.6z"/>
		<path class="st0" d="M692.6,80.8c0.1,7.5-1.1,15.5-4.6,23c-6.6,14.1-19.5,22-35,21.4c-15.9-0.6-28.6-10.3-33.9-25.9
			c-2.7-7.9-3-16-2.6-24.1c0.3-7.8,2.2-15.3,6.2-22c7.7-12.8,19.2-18.8,34.1-18.1c16.5,0.8,29.6,11.7,34.2,29.5
			C692.2,69.6,692.6,74.8,692.6,80.8z M688.1,79.7c0.2-7.9-1.4-15.7-5.3-23c-9.1-16.8-26.7-20.8-40.9-15c-9.1,3.7-14.7,11-18.2,19.9
			c-2.7,6.7-3.1,13.7-3,20.8c0.1,6.8,1.5,13.3,4.4,19.4c6.7,13.9,20.3,21,35.5,18.4c9.9-1.7,16.9-7.5,21.9-16
			C686.8,96.7,688.1,88.5,688.1,79.7z"/>
		<path class="st0" d="M713.6,36.5c1.1,0,2.2,0,3.2,0c0.3,0,0.7,0,1.2,0.1c0,6.4,0,12.7,0,19.1c0.1,0,0.2,0.1,0.3,0.1
			c0.5-0.9,0.9-1.7,1.4-2.6c5.1-9.1,12.5-15.4,22.9-17.6c6.2-1.3,12.4-0.9,18.4,1.3c7.7,2.8,12,8.7,13.9,16.4c1,4,1.6,8.1,1.6,12.1
			c0.2,18.9,0.1,37.7,0.1,56.6c0,0.5,0,1,0,1.6c-1.5,0-2.9,0-4.4,0c0-0.6,0-1.2,0-1.8c0-18.8,0-37.6,0-56.3c0-4.4-0.6-8.7-2.1-12.9
			c-2.7-7.6-8.2-11.6-16-12.8c-16.3-2.4-26.7,6.6-32.7,18.5c-0.8,1.6-1.4,3.4-2.1,5.1c-1,2.6-1.3,5.2-1.3,7.9
			c0.1,16.8,0,33.6,0,50.4c0,0.6,0,1.2,0,1.9c-1.5,0-2.9,0-4.4,0C713.6,94.5,713.6,65.6,713.6,36.5z"/>
		<path class="st0" d="M808.2,0c0,0.5,0,1,0,1.4c0,26.4,0,52.9,0,79.3c0,0.5,0,0.9,0,1.8c1.8-1.6,3.3-3.1,4.8-4.5
			c14.6-13.5,29.2-27.1,43.8-40.7c0.8-0.7,1.5-1,2.6-1c1.5,0.1,3,0,4.8,0c-13.5,12.5-26.7,24.8-40,37.1c7.1,8.4,14.2,16.7,21.2,24.9
			c7,8.3,14,16.5,21.3,25.1c-2,0-3.7,0.1-5.4,0c-0.5,0-0.9-0.6-1.3-1c-9-10.5-18-21.1-26.9-31.6c-4-4.7-8.1-9.5-12.2-14.3
			c-2.4,2.1-4.8,4.1-7.2,6.1c-1,0.9-2,1.9-3.1,2.6c-2.1,1.3-2.6,3.2-2.6,5.6c0.1,10.3,0.1,20.6,0.1,30.8c0,0.6,0,1.1,0,1.8
			c-1.5,0-2.8,0-4.3,0c0-0.6-0.1-1.3-0.1-1.9c0-39.9,0-79.7,0-119.6c0-0.7-0.1-1.3-0.1-2C805.1,0,806.6,0,808.2,0z"/>
		<path class="st0" d="M877.8,77.1c-1.5,16.3,5.3,32.6,19.2,40.1c10.6,5.7,29.4,5.3,39.4-7.4c0.2-0.3,0.5-0.6,0.8-1
			c1,0.7,2,1.4,3.1,2.2c-4.6,6.6-10.7,10.9-18.4,12.9c-20.6,5.3-40.3-5.8-46.4-26.7c-4.2-14.5-3.7-28.9,3.3-42.6
			c5-9.8,12.8-16.5,23.7-18.9c17.6-3.9,33.6,5.9,38.5,23.5c1.6,5.8,1.9,11.8,1.7,17.9C921.1,77.1,899.5,77.1,877.8,77.1z
			 M938.4,72.7c0-5.6-0.9-10.9-3.1-15.9c-8.5-19.5-29.6-21.3-42.1-12.4c-8.1,5.8-12.7,14-14.6,23.6c-0.3,1.5-0.5,3.1-0.7,4.7
			C898.2,72.7,918.2,72.7,938.4,72.7z"/>
		<path class="st0" d="M988.6,116.5c6.7-17.6,13.4-35,20-52.3c3.4-8.8,6.8-17.6,10.1-26.5c0.4-0.9,0.8-1.4,1.8-1.3
			c1.1,0.1,2.2,0,3.4,0c-0.1,0.4-0.1,0.7-0.2,1c-13.4,35.2-26.9,70.5-40.4,105.7c-2.2,5.7-5.5,10.5-11.1,13.4
			c-4.7,2.4-9.7,2.6-14.8,1.8c-1-0.2-1.6-0.5-1.5-1.7c0.1-0.9,0-1.9,0-2.5c2.8,0,5.5,0.2,8.3,0c4.8-0.4,8.5-2.7,11.4-6.5
			c3-3.9,4.7-8.5,6.3-13.1c1.2-3.4,2.5-6.8,3.7-10.2c0.2-0.7,0.3-1.7,0-2.4c-11.2-28-22.4-56-33.6-84c-0.2-0.4-0.3-0.8-0.5-1.4
			c1.5,0,2.9-0.1,4.3,0.1c0.4,0,0.8,0.7,1,1.2c4.5,11.2,9,22.3,13.5,33.5c5.8,14.5,11.7,29.1,17.5,43.6
			C988.1,115.3,988.3,115.8,988.6,116.5z"/>
	</g>
	<g>
		<path class="st0" d="M48,83.4c-0.5-0.1-1.1-0.1-1.6-0.2c-2.2-0.5-3.6-2.3-3.9-4.6c-0.1-0.9-0.1-1.8,0.1-2.7c0.6-2.2,2-3.4,4.2-3.8
			c1-0.2,2.1-0.2,3.1,0.1c1.3,0.3,2.2,1,2.9,2.2c1.2,1.9,1.3,3.9,0.4,6c-0.7,1.6-2,2.5-3.7,2.9C49.1,83.3,48.6,83.3,48,83.4z"/>
		<path class="st0" d="M72.1,83.3c-1,0-2-0.2-2.9-0.6c-1.9-0.9-2.9-2.7-2.6-4.8c0.1-0.9,0.4-1.7,0.9-2.4c0.4-0.6,0.8-1.2,1.3-1.8
			c0.4-0.6,0.9-1.1,1.4-1.7c0.1-0.2,0.3-0.3,0.5-0.2c1.2,0.1,2.3,0.3,3.4,0.7c0.2,0.1,0.4,0.1,0.5,0.2c1.9,0.8,3,2.3,3.1,4.3
			c0.1,0.8,0,1.6-0.2,2.4c-0.6,2.2-2.5,3.7-4.8,3.8C72.5,83.3,72.3,83.3,72.1,83.3z"/>
		<path class="st0" d="M70.5,91.9c0,0.1-0.1,0.2-0.1,0.2c-1,1.2-2.2,2.2-3.6,2.9c-1,0.5-2.1,0.8-3.3,0.6c-0.3,0-0.5-0.1-0.6-0.3
			c-0.3-0.4-0.6-0.7-0.9-1.1c-0.2-0.2-0.3-0.5-0.4-0.8c-0.2-0.7,0-1.2,0.6-1.6c0.5-0.3,1-0.4,1.6-0.4c1.5-0.2,3.1,0,4.6,0.2
			C69.1,91.7,69.8,91.8,70.5,91.9z"/>
		<path class="st0" d="M49.8,91.9c0.7-0.1,1.4-0.2,2-0.3c1.4-0.2,2.9-0.4,4.3-0.2c0.5,0.1,1,0.2,1.4,0.3c0.7,0.3,1,0.9,0.7,1.7
			c-0.3,0.8-0.8,1.4-1.4,2c-0.1,0.1-0.2,0.1-0.4,0.2c-0.7,0.2-1.4,0-2.1-0.2c-0.4-0.1-0.7-0.3-1-0.4C52,94.3,50.9,93.3,49.8,91.9z"
			/>
		<path class="st0" d="M120.2,73.3c-0.2-3.5-1.3-6.8-3.3-9.7c-1.7-2.7-4-4.8-6.6-6.6c-1.4-0.9-2.5-2.2-3.3-3.7
			c-0.3-0.6-0.5-1.2-0.7-1.8c-1.8-5.8-4.4-11.3-8.1-16.1c-3-3.9-6.5-7.2-10.5-10.1c-1.1-0.8-2.2-1.6-3.3-2.4c-0.5-0.4-1-0.9-1.5-1.3
			c-0.2-0.2-0.4-0.5-0.6-0.7c-0.4-0.6-0.6-1.4-0.3-2.1c0.2-0.5,0.4-1,0.8-1.5c0.9-1.2,1.8-2.3,2.7-3.4c0.2-0.2,0.4-0.5,0.6-0.8
			c-0.3-0.1-0.6-0.1-0.9-0.2c-0.6,0-1.3,0-1.9,0c-0.3,0.1-0.7,0.1-1,0.2c-1.5,0.3-3,0.6-4.5,0.9c-2,0.4-4.1,0.4-6.1-0.2
			c-0.5-0.2-1-0.3-1.5-0.6c-0.4-0.2-0.7-0.1-1,0c-1.2,0.6-2.4,1.2-3.7,1.7c-2.1,0.8-4.2,1.4-6.4,1.6c-0.7,0.1-1.3,0.1-2,0.1
			c-19.4,1.1-36.3,13.5-42.8,32.3c-0.4,1.1-0.7,2.3-1.1,3.4c-0.6,2-1.7,3.7-3.5,5c-2.8,2-5.2,4.4-7,7.5c-1.4,2.4-2.3,4.9-2.5,7.7
			c0,0.3-0.1,0.5-0.2,0.8C0,74.1,0,75,0,76c0.1,0.3,0.2,0.5,0.2,0.8c0.3,3,1.2,5.8,2.6,8.3c2.5,4.4,6.2,7.2,10.9,8.8
			c1.9,0.7,3.9,1,5.9,1.2c3.5,0.3,5.8,2.2,7.4,5.2c0.9,1.7,1.1,3.5,0.8,5.4c-0.4,2.4-0.8,4.8-0.8,7.3c0,2,0.2,3.9,0.6,5.9
			c0.9,5,2.8,9.6,5.8,13.7c4.7,6.4,11,10.5,18.7,12.4c3.1,0.8,6.4,1.1,9.6,1c4.4-0.2,8.6-1,12.6-2.9c6.7-3.2,11.7-8.2,15.1-14.7
			c1.8-3.5,3-7.2,3.5-11.1c0.6-4,0.4-8.1-0.5-12.1c-0.9-4.4,1.7-8.6,6.1-9.7c0.7-0.2,1.4-0.2,2.2-0.3c4.2-0.3,8-1.6,11.4-4
			c4.1-3,6.7-7,7.7-12c0.2-0.9,0.2-1.9,0.4-2.8c0-0.1,0.1-0.3,0.1-0.4c0-0.7,0-1.4,0-2C120.3,73.7,120.2,73.5,120.2,73.3z
			 M17.6,91.4c-6.4-2.5-10.2-7.1-11.4-13.8c-0.8-5,0.5-9.4,3.7-13.3c0.1-0.1,0.2-0.3,0.4-0.5c2.7,9.3,5.3,18.5,8,27.8
			C18,91.5,17.8,91.5,17.6,91.4z M87.9,120.8c-0.1,0.2-0.2,0.4-0.3,0.5c-1,2-2.5,3.6-4.1,5.1c-2.2,2-4.7,3.6-7.4,4.9
			c-3.9,1.8-8,3-12.3,3.4c-1.2,0.1-2.5,0.2-3.7,0.1c-1.2,0-2.5,0-3.7-0.1c-4.3-0.4-8.4-1.6-12.3-3.4c-2.7-1.3-5.2-2.8-7.4-4.9
			c-1.6-1.5-3.1-3.2-4.1-5.1c-0.1-0.2-0.2-0.4-0.3-0.5c0,0,0-0.1,0-0.1c0.2,0.1,0.3,0.2,0.5,0.3c4.3,2.7,8.7,5.1,13.5,6.7
			c3,1,6.1,1.8,9.3,2.2c1.5,0.2,3,0.3,4.5,0.3c1.5,0,3-0.1,4.5-0.3c3.2-0.4,6.3-1.2,9.3-2.2c4.8-1.7,9.3-4,13.5-6.7
			c0.2-0.1,0.3-0.2,0.5-0.3C87.9,120.7,87.9,120.8,87.9,120.8z M90,92.4c-2.2,1.2-4.5,2.1-6.9,2.7c-0.2,0-0.3,0.1-0.5,0.2
			c0.2,0.8,0.5,1.6,0.7,2.4c1.1,4,2.3,8.1,3.4,12.1c0.3,1.1,0.6,2.2,0.7,3.4c0.3,2.2-0.5,4.1-2.1,5.8c-0.7,0.7-1.5,1.4-2.4,1.9
			c-4.1,2.5-8.6,4.2-13.3,5.2c-3.5,0.7-7,1.1-10.6,1c-7.5-0.2-14.5-2.2-21-6c-1.3-0.8-2.5-1.7-3.4-3c-1.3-1.8-1.8-3.9-1.6-6.2
			c0.2-3.1,1.1-6,2.3-8.8c0.9-2.1,1.9-4.2,2.9-6.2c0.2-0.5,0.5-1,0.7-1.6c-0.2-0.1-0.3-0.2-0.5-0.3c-3.5-1.8-6.8-3.9-9.8-6.5
			c-2.7-2.3-4.9-5-6.6-8.1c-1.9-3.6-2.9-7.4-2.7-11.5c0.1-3.2,0.9-6.3,2.2-9.2c3.4-7.4,9-12.4,16.8-14.8c6.4-1.9,12.6-1.2,18.5,1.7
			c1.4,0.7,2.7,1.5,4,2.4c0.1,0.1,0.3,0.2,0.4,0.2c1.4-0.8,2.7-1.6,4.1-2.3c2.8-1.4,5.9-2.4,9-2.8c7.6-0.9,14.4,1.1,20.2,6.1
			c4.3,3.6,7.1,8.2,8.4,13.7C105.5,75.1,100.2,86.8,90,92.4z M114.2,75.3c-0.2,2.8-0.9,5.4-2.1,7.9c-2,3.9-5.2,6.6-9.2,8.3
			c-0.5,0.2-1,0.4-1.4,0.5c0,0-0.1-0.1-0.1-0.1c0,0,0,0,0,0c2.7-9.6,5.5-19.1,8.2-28.7c0-0.1,0.1-0.1,0.1-0.3
			c0.8,0.9,1.5,1.8,2.1,2.7C113.7,68.7,114.4,71.9,114.2,75.3z"/>
	</g>
</g>
</svg>
