<?xml version="1.0" encoding="utf-8"?>
<!-- Generator: Adobe Illustrator 24.3.0, SVG Export Plug-In . SVG Version: 6.00 Build 0)  -->
<svg version="1.1" id="Capa_1" xmlns="http://www.w3.org/2000/svg" xmlns:xlink="http://www.w3.org/1999/xlink" x="0px" y="0px"
	 viewBox="0 0 500 500" style="enable-background:new 0 0 500 500;" xml:space="preserve">
<style type="text/css">
	.st0{fill:#F6F6F6;}
	.st1{fill:#DADADA;}
</style>
<rect class="st0" width="500" height="500"/>
<path class="st1" d="M204.9,250.2c0.9-1,1.8-2.1,3.4-1.5c1.6,0.6,1.8,1.9,1.8,3.4c0,7.6,0,15.1,0,22.7c0,6.9,5,11.9,11.9,11.9
	c18.7,0,37.4,0,56.1,0c6.8,0,11.8-5,11.8-11.9c0-7.2,0-14.3,0-21.5c0-0.4,0-0.8,0-1.2c0.1-1.9,1.1-3.1,2.6-3.1
	c1.5,0,2.5,1.2,2.6,3.2c0,0.7,0,1.3,0,2c0,6.8,0,13.5,0,20.3c0,10-7.1,17.3-17.1,17.4c-18.7,0.1-37.4,0.1-56.1,0
	c-8.6,0-15-5.4-16.7-13.8c-0.1-0.3-0.2-0.6-0.3-0.9C204.9,268.1,204.9,259.1,204.9,250.2z"/>
<path class="st1" d="M247.4,216.9c-4.1,4.1-7.7,7.8-11.4,11.4c-0.7,0.6-1.7,1.3-2.5,1.3c-0.7,0-1.9-0.8-2-1.5
	c-0.2-0.8,0-2.2,0.6-2.8c2.4-2.7,5-5.2,7.6-7.7c2.7-2.7,5.5-5.5,8.2-8.2c1.6-1.6,2.8-1.6,4.4,0c5.2,5.2,10.4,10.4,15.6,15.6
	c1.5,1.5,1.6,2.8,0.4,4c-1.1,1.1-2.6,1-4-0.5c-3.7-3.7-7.5-7.5-11.6-11.6c0,1.2,0,1.8,0,2.5c0,16.1,0,32.2,0,48.3
	c0,0.6,0.1,1.2,0,1.8c-0.3,1.4-1,2.3-2.6,2.3c-1.5,0-2.3-0.9-2.6-2.3c-0.1-0.6,0-1.2,0-1.8c0-16,0-32.1,0-48.1
	C247.4,219,247.4,218.3,247.4,216.9z"/>
</svg>
